<svg version="1.1" xmlns="http://www.w3.org/2000/svg" xmlns:xlink="http://www.w3.org/1999/xlink" width="48.88823" height="40.89996" viewBox="0,0,48.88823,40.89996"><g transform="translate(-216.425,-158.59268)"><g data-paper-data="{&quot;isPaintingLayer&quot;:true}" fill-rule="nonzero" stroke-linejoin="miter" stroke-miterlimit="10" stroke-dasharray="" stroke-dashoffset="0" style="mix-blend-mode: normal"><path d="M228.65666,180c0,-6.26476 5.07859,-11.34335 11.34335,-11.34335c6.26476,0 11.34335,5.07859 11.34335,11.34335c0,6.26476 -5.07859,11.34335 -11.34335,11.34335c-6.26476,0 -11.34335,-5.07859 -11.34335,-11.34335z" fill="#ffffff" stroke="none" stroke-width="0" stroke-linecap="butt"/><path d="M216.42501,199.49264v-40.89996h48.88823v40.89996z" fill="none" stroke="none" stroke-width="0" stroke-linecap="butt"/><path d="M228.65666,180c0,-6.26476 5.07859,-11.34335 11.34335,-11.34335c6.26476,0 11.34335,5.07859 11.34335,11.34335c0,6.26476 -5.07859,11.34335 -11.34335,11.34335c-6.26476,0 -11.34335,-5.07859 -11.34335,-11.34335z" fill="#4e4e4e" stroke="#000000" stroke-width="2" stroke-linecap="butt"/><path d="M236.80012,190.69302c0,0 -3.71849,-1.88002 -4.83868,-3.13966c-1.10934,-1.24744 -1.85022,-4.38194 -1.85022,-4.38194l13.86076,-14.09819c0,0 1.84451,1.01557 2.72525,1.8379c1.12021,1.04591 3.45206,3.92969 3.45206,3.92969z" fill="#8e0000" stroke="none" stroke-width="0" stroke-linecap="butt"/><path d="M236.66682,190.37061l13.44737,-14.61671" fill="none" stroke="#000000" stroke-width="2" stroke-linecap="round"/><path d="M228.65666,180c0,-6.26476 5.07859,-11.34335 11.34335,-11.34335c6.26476,0 11.34335,5.07859 11.34335,11.34335c0,6.26476 -5.07859,11.34335 -11.34335,11.34335c-6.26476,0 -11.34335,-5.07859 -11.34335,-11.34335z" fill="none" stroke="#000000" stroke-width="2" stroke-linecap="butt"/><path d="M229.35847,183.72001l13.66662,-14.39745" fill="none" stroke="#000000" stroke-width="2" stroke-linecap="round"/></g></g></svg>