<svg version="1.1" xmlns="http://www.w3.org/2000/svg" xmlns:xlink="http://www.w3.org/1999/xlink" width="3017.1521" height="2129.75442" viewBox="0,0,3017.1521,2129.75442"><defs><radialGradient cx="105.61562" cy="70.99098" r="159.90991" gradientUnits="userSpaceOnUse" id="color-1"><stop offset="0" stop-color="#f179c7"/><stop offset="1" stop-color="#f179c7" stop-opacity="0"/></radialGradient><radialGradient cx="112.11712" cy="115.03002" r="159.90991" gradientUnits="userSpaceOnUse" id="color-2"><stop offset="0" stop-color="#f179c7"/><stop offset="1" stop-color="#f179c7" stop-opacity="0"/></radialGradient><radialGradient cx="376.63664" cy="53.72371" r="295.7958" gradientUnits="userSpaceOnUse" id="color-3"><stop offset="0" stop-color="#79f2d9"/><stop offset="1" stop-color="#79f2d9" stop-opacity="0"/></radialGradient><radialGradient cx="345.6006" cy="130.79579" r="295.79579" gradientUnits="userSpaceOnUse" id="color-4"><stop offset="0" stop-color="#79f2d9"/><stop offset="1" stop-color="#79f2d9" stop-opacity="0"/></radialGradient><radialGradient cx="45.79579" cy="326.48648" r="198.1982" gradientUnits="userSpaceOnUse" id="color-5"><stop offset="0" stop-color="#79f2d9"/><stop offset="1" stop-color="#79f2d9" stop-opacity="0"/></radialGradient><radialGradient cx="164.41441" cy="383.54353" r="199.6997" gradientUnits="userSpaceOnUse" id="color-6"><stop offset="0" stop-color="#f179c7"/><stop offset="1" stop-color="#f179c7" stop-opacity="0"/></radialGradient><radialGradient cx="563.57357" cy="444.74474" r="308.55856" gradientUnits="userSpaceOnUse" id="color-7"><stop offset="0" stop-color="#9af279"/><stop offset="1" stop-color="#9af279" stop-opacity="0"/></radialGradient><radialGradient cx="470.97598" cy="478.15316" r="308.55855" gradientUnits="userSpaceOnUse" id="color-8"><stop offset="0" stop-color="#9af279"/><stop offset="1" stop-color="#9af279" stop-opacity="0"/></radialGradient><radialGradient cx="126.87688" cy="225.64566" r="132.13213" gradientUnits="userSpaceOnUse" id="color-9"><stop offset="0" stop-color="#9af279"/><stop offset="1" stop-color="#9af279" stop-opacity="0"/></radialGradient><radialGradient cx="164.90991" cy="257.67268" r="132.13214" gradientUnits="userSpaceOnUse" id="color-10"><stop offset="0" stop-color="#9af279"/><stop offset="1" stop-color="#9af279" stop-opacity="0"/></radialGradient><radialGradient cx="64.26427" cy="252.04206" r="92.13213" gradientUnits="userSpaceOnUse" id="color-11"><stop offset="0" stop-color="#9af279"/><stop offset="1" stop-color="#9af279" stop-opacity="0"/></radialGradient><radialGradient cx="-369.50451" cy="266.56156" r="159.90991" gradientUnits="userSpaceOnUse" id="color-12"><stop offset="0" stop-color="#f179c7"/><stop offset="1" stop-color="#f179c7" stop-opacity="0"/></radialGradient><radialGradient cx="-363.00301" cy="310.6006" r="159.90991" gradientUnits="userSpaceOnUse" id="color-13"><stop offset="0" stop-color="#f179c7"/><stop offset="1" stop-color="#f179c7" stop-opacity="0"/></radialGradient><radialGradient cx="-98.48349" cy="249.29429" r="295.7958" gradientUnits="userSpaceOnUse" id="color-14"><stop offset="0" stop-color="#79f2d9"/><stop offset="1" stop-color="#79f2d9" stop-opacity="0"/></radialGradient><radialGradient cx="-129.51952" cy="326.36636" r="295.79579" gradientUnits="userSpaceOnUse" id="color-15"><stop offset="0" stop-color="#79f2d9"/><stop offset="1" stop-color="#79f2d9" stop-opacity="0"/></radialGradient><radialGradient cx="-429.32433" cy="522.05706" r="198.19819" gradientUnits="userSpaceOnUse" id="color-16"><stop offset="0" stop-color="#79f2d9"/><stop offset="1" stop-color="#79f2d9" stop-opacity="0"/></radialGradient><radialGradient cx="-310.70571" cy="579.11411" r="199.6997" gradientUnits="userSpaceOnUse" id="color-17"><stop offset="0" stop-color="#f179c7"/><stop offset="1" stop-color="#f179c7" stop-opacity="0"/></radialGradient><radialGradient cx="-4.14415" cy="673.72374" r="308.55855" gradientUnits="userSpaceOnUse" id="color-18"><stop offset="0" stop-color="#9af279"/><stop offset="1" stop-color="#9af279" stop-opacity="0"/></radialGradient><radialGradient cx="-348.24325" cy="421.21623" r="132.13214" gradientUnits="userSpaceOnUse" id="color-19"><stop offset="0" stop-color="#9af279"/><stop offset="1" stop-color="#9af279" stop-opacity="0"/></radialGradient><radialGradient cx="-310.21021" cy="453.24326" r="132.13213" gradientUnits="userSpaceOnUse" id="color-20"><stop offset="0" stop-color="#9af279"/><stop offset="1" stop-color="#9af279" stop-opacity="0"/></radialGradient><radialGradient cx="-410.85585" cy="447.61264" r="92.13213" gradientUnits="userSpaceOnUse" id="color-21"><stop offset="0" stop-color="#9af279"/><stop offset="1" stop-color="#9af279" stop-opacity="0"/></radialGradient><radialGradient cx="-409.54955" cy="-415.28527" r="159.90991" gradientUnits="userSpaceOnUse" id="color-22"><stop offset="0" stop-color="#f179c7"/><stop offset="1" stop-color="#f179c7" stop-opacity="0"/></radialGradient><radialGradient cx="-403.04805" cy="-371.24623" r="159.90991" gradientUnits="userSpaceOnUse" id="color-23"><stop offset="0" stop-color="#f179c7"/><stop offset="1" stop-color="#f179c7" stop-opacity="0"/></radialGradient><radialGradient cx="-138.52853" cy="-432.55253" r="295.79579" gradientUnits="userSpaceOnUse" id="color-24"><stop offset="0" stop-color="#79f2d9"/><stop offset="1" stop-color="#79f2d9" stop-opacity="0"/></radialGradient><radialGradient cx="9.11411" cy="-68.69368" r="295.79579" gradientUnits="userSpaceOnUse" id="color-25"><stop offset="0" stop-color="#79f2d9"/><stop offset="1" stop-color="#79f2d9" stop-opacity="0"/></radialGradient><radialGradient cx="-469.36937" cy="-159.78977" r="198.1982" gradientUnits="userSpaceOnUse" id="color-26"><stop offset="0" stop-color="#79f2d9"/><stop offset="1" stop-color="#79f2d9" stop-opacity="0"/></radialGradient><radialGradient cx="-350.75076" cy="-102.73271" r="199.6997" gradientUnits="userSpaceOnUse" id="color-27"><stop offset="0" stop-color="#f179c7"/><stop offset="1" stop-color="#f179c7" stop-opacity="0"/></radialGradient><radialGradient cx="-43.07808" cy="-8.12308" r="308.55855" gradientUnits="userSpaceOnUse" id="color-28"><stop offset="0" stop-color="#9af279"/><stop offset="1" stop-color="#9af279" stop-opacity="0"/></radialGradient><radialGradient cx="-388.28829" cy="-260.63059" r="132.13214" gradientUnits="userSpaceOnUse" id="color-29"><stop offset="0" stop-color="#9af279"/><stop offset="1" stop-color="#9af279" stop-opacity="0"/></radialGradient><radialGradient cx="-350.25526" cy="-228.60357" r="132.13214" gradientUnits="userSpaceOnUse" id="color-30"><stop offset="0" stop-color="#9af279"/><stop offset="1" stop-color="#9af279" stop-opacity="0"/></radialGradient><radialGradient cx="-450.9009" cy="-234.23418" r="92.13213" gradientUnits="userSpaceOnUse" id="color-31"><stop offset="0" stop-color="#9af279"/><stop offset="1" stop-color="#9af279" stop-opacity="0"/></radialGradient><radialGradient cx="361.997" cy="-480.43541" r="159.90991" gradientUnits="userSpaceOnUse" id="color-32"><stop offset="0" stop-color="#f179c7"/><stop offset="1" stop-color="#f179c7" stop-opacity="0"/></radialGradient><radialGradient cx="368.4985" cy="-436.39637" r="159.90991" gradientUnits="userSpaceOnUse" id="color-33"><stop offset="0" stop-color="#f179c7"/><stop offset="1" stop-color="#f179c7" stop-opacity="0"/></radialGradient><radialGradient cx="633.01802" cy="-497.70268" r="295.7958" gradientUnits="userSpaceOnUse" id="color-34"><stop offset="0" stop-color="#79f2d9"/><stop offset="1" stop-color="#79f2d9" stop-opacity="0"/></radialGradient><radialGradient cx="601.98198" cy="-420.63061" r="295.79579" gradientUnits="userSpaceOnUse" id="color-35"><stop offset="0" stop-color="#79f2d9"/><stop offset="1" stop-color="#79f2d9" stop-opacity="0"/></radialGradient><radialGradient cx="302.17718" cy="-224.93991" r="198.19819" gradientUnits="userSpaceOnUse" id="color-36"><stop offset="0" stop-color="#79f2d9"/><stop offset="1" stop-color="#79f2d9" stop-opacity="0"/></radialGradient><radialGradient cx="420.79579" cy="-167.88286" r="199.6997" gradientUnits="userSpaceOnUse" id="color-37"><stop offset="0" stop-color="#f179c7"/><stop offset="1" stop-color="#f179c7" stop-opacity="0"/></radialGradient><radialGradient cx="727.35736" cy="-73.27323" r="308.55855" gradientUnits="userSpaceOnUse" id="color-38"><stop offset="0" stop-color="#9af279"/><stop offset="1" stop-color="#9af279" stop-opacity="0"/></radialGradient><radialGradient cx="383.25826" cy="-325.78074" r="132.13214" gradientUnits="userSpaceOnUse" id="color-39"><stop offset="0" stop-color="#9af279"/><stop offset="1" stop-color="#9af279" stop-opacity="0"/></radialGradient><radialGradient cx="421.29129" cy="-293.75371" r="132.13213" gradientUnits="userSpaceOnUse" id="color-40"><stop offset="0" stop-color="#9af279"/><stop offset="1" stop-color="#9af279" stop-opacity="0"/></radialGradient><radialGradient cx="320.64565" cy="-299.38433" r="92.13213" gradientUnits="userSpaceOnUse" id="color-41"><stop offset="0" stop-color="#9af279"/><stop offset="1" stop-color="#9af279" stop-opacity="0"/></radialGradient></defs><g transform="translate(1268.57605,884.87721)"><g data-paper-data="{&quot;isPaintingLayer&quot;:true}" fill-rule="nonzero" stroke="none" stroke-linecap="butt" stroke-linejoin="miter" stroke-miterlimit="10" stroke-dasharray="" stroke-dashoffset="0" style="mix-blend-mode: normal"><path d="M-1268.57605,1244.87721v-2129.75442h3017.1521v2129.75442z" fill="#000000" stroke-width="NaN"/><path d="M-54.29429,70.99098c0,-88.3158 71.59411,-159.90991 159.90991,-159.90991c88.3158,0 159.90991,71.59411 159.90991,159.90991c0,88.3158 -71.59411,159.90991 -159.90991,159.90991c-88.3158,0 -159.90991,-71.59411 -159.90991,-159.90991z" fill="url(#color-1)" stroke-width="0"/><path d="M-47.79279,115.03002c0,-88.3158 71.59411,-159.90991 159.90991,-159.90991c88.31581,0 159.90991,71.59411 159.90991,159.90991c0,88.3158 -71.5941,159.90991 -159.90991,159.90991c-88.3158,0 -159.90991,-71.59411 -159.90991,-159.90991z" fill="url(#color-2)" stroke-width="0"/><path d="M80.84084,53.72371c0,-163.36351 132.43229,-295.7958 295.7958,-295.7958c163.36351,0 295.7958,132.43229 295.7958,295.7958c0,163.36351 -132.43229,295.7958 -295.7958,295.7958c-163.36351,0 -295.7958,-132.43229 -295.7958,-295.7958z" fill="url(#color-3)" stroke-width="0"/><path d="M49.8048,130.79579c0,-163.3635 132.43229,-295.79579 295.7958,-295.79579c163.3635,0 295.79579,132.43229 295.79579,295.7958c0,163.3635 -132.43229,295.79579 -295.79579,295.79579c-163.3635,0 -295.79579,-132.43229 -295.79579,-295.79579z" fill="url(#color-4)" stroke-width="0"/><path d="M-152.4024,326.48648c0,-109.46184 88.73636,-198.1982 198.1982,-198.1982c109.46184,0 198.1982,88.73636 198.1982,198.1982c0,109.46184 -88.73636,198.1982 -198.1982,198.1982c-109.46184,0 -198.1982,-88.73636 -198.1982,-198.1982z" fill="url(#color-5)" stroke-width="0"/><path d="M-35.28529,383.54353c0,-110.2911 89.4086,-199.6997 199.6997,-199.6997c110.2911,0 199.6997,89.4086 199.6997,199.6997c0,110.2911 -89.4086,199.6997 -199.6997,199.6997c-110.2911,0 -199.6997,-89.4086 -199.6997,-199.6997z" fill="url(#color-6)" stroke-width="0"/><path d="M255.01502,444.74474c0,-170.41219 138.14637,-308.55856 308.55856,-308.55856c170.41219,0 308.55856,138.14637 308.55856,308.55856c0,170.41219 -138.14637,308.55856 -308.55856,308.55856c-170.41219,0 -308.55856,-138.14637 -308.55856,-308.55856z" fill="url(#color-7)" stroke-width="0"/><path d="M162.41742,478.15316c0,-170.41218 138.14637,-308.55856 308.55856,-308.55856c170.41219,0 308.55855,138.14638 308.55855,308.55856c0,170.41218 -138.14637,308.55856 -308.55855,308.55856c-170.41219,0 -308.55856,-138.14638 -308.55856,-308.55856z" fill="url(#color-8)" stroke-width="0"/><path d="M-5.25526,225.64566c0,-72.97456 59.15757,-132.13213 132.13213,-132.13213c72.97456,0 132.13213,59.15757 132.13213,132.13213c0,72.97456 -59.15757,132.13213 -132.13213,132.13213c-72.97456,0 -132.13213,-59.15757 -132.13213,-132.13213z" fill="url(#color-9)" stroke-width="0"/><path d="M32.77778,257.67268c0,-72.97456 59.15757,-132.13213 132.13213,-132.13213c72.97456,0 132.13214,59.15757 132.13214,132.13213c0,72.97456 -59.15758,132.13213 -132.13214,132.13213c-72.97456,0 -132.13213,-59.15757 -132.13213,-132.13213z" fill="url(#color-10)" stroke-width="0"/><path d="M-27.86786,252.04206c0,-50.88317 41.24896,-92.13213 92.13213,-92.13213c50.88317,0 92.13213,41.24896 92.13213,92.13213c0,50.88317 -41.24896,92.13213 -92.13213,92.13213c-50.88317,0 -92.13213,-41.24896 -92.13213,-92.13213z" fill="url(#color-11)" stroke-width="0"/><path d="M-529.41442,266.56156c0,-88.3158 71.5941,-159.90991 159.90991,-159.90991c88.31581,0 159.90991,71.59411 159.90991,159.90991c0,88.31581 -71.59411,159.90991 -159.90991,159.90991c-88.31581,0 -159.90991,-71.5941 -159.90991,-159.90991z" fill="url(#color-12)" stroke-width="0"/><path d="M-522.91292,310.6006c0,-88.31581 71.5941,-159.90991 159.90991,-159.90991c88.31581,0 159.90991,71.59411 159.90991,159.90991c0,88.3158 -71.5941,159.90991 -159.90991,159.90991c-88.31581,0 -159.90991,-71.5941 -159.90991,-159.90991z" fill="url(#color-13)" stroke-width="0"/><path d="M-394.27928,249.29429c0,-163.3635 132.43229,-295.79579 295.7958,-295.79579c163.36351,0 295.7958,132.43229 295.7958,295.7958c0,163.36351 -132.43229,295.7958 -295.7958,295.7958c-163.3635,0 -295.79579,-132.43229 -295.79579,-295.79579z" fill="url(#color-14)" stroke-width="0"/><path d="M-425.31532,326.36636c0,-163.3635 132.43229,-295.79579 295.7958,-295.79579c163.36351,0 295.79579,132.43229 295.79579,295.7958c0,163.3635 -132.43229,295.79579 -295.79579,295.79579c-163.3635,0 -295.79579,-132.43229 -295.79579,-295.79579z" fill="url(#color-15)" stroke-width="0"/><path d="M-627.52253,522.05706c0,-109.46184 88.73636,-198.1982 198.1982,-198.1982c109.46184,0 198.19819,88.73636 198.19819,198.1982c0,109.46184 -88.73635,198.19819 -198.19819,198.19819c-109.46184,0 -198.1982,-88.73635 -198.1982,-198.19819z" fill="url(#color-16)" stroke-width="0"/><path d="M-510.40541,579.11411c0,-110.2911 89.4086,-199.6997 199.6997,-199.6997c110.2911,0 199.6997,89.4086 199.6997,199.6997c0,110.2911 -89.4086,199.6997 -199.6997,199.6997c-110.2911,0 -199.6997,-89.4086 -199.6997,-199.6997z" fill="url(#color-17)" stroke-width="0"/><path d="M-312.70271,673.72374c0,-170.41218 138.14638,-308.55856 308.55856,-308.55856c170.41218,0 308.55855,138.14638 308.55855,308.55856c0,170.41218 -138.14637,308.55856 -308.55855,308.55856c-170.41218,0 -308.55856,-138.14638 -308.55856,-308.55856z" fill="url(#color-18)" stroke-width="0"/><path d="M-480.37538,421.21623c0,-72.97456 59.15757,-132.13213 132.13213,-132.13213c72.97456,0 132.13214,59.15757 132.13214,132.13213c0,72.97456 -59.15758,132.13213 -132.13214,132.13213c-72.97456,0 -132.13213,-59.15757 -132.13213,-132.13213z" fill="url(#color-19)" stroke-width="0"/><path d="M-442.34234,453.24326c0,-72.97456 59.15757,-132.13213 132.13213,-132.13213c72.97456,0 132.13213,59.15757 132.13213,132.13213c0,72.97456 -59.15757,132.13213 -132.13213,132.13213c-72.97456,0 -132.13213,-59.15757 -132.13213,-132.13213z" fill="url(#color-20)" stroke-width="0"/><path d="M-502.98798,447.61264c0,-50.88317 41.24896,-92.13212 92.13213,-92.13212c50.88317,0 92.13213,41.24895 92.13213,92.13212c0,50.88317 -41.24896,92.13213 -92.13213,92.13213c-50.88317,0 -92.13213,-41.24896 -92.13213,-92.13213z" fill="url(#color-21)" stroke-width="0"/><path d="M-569.45946,-415.28527c0,-88.31581 71.5941,-159.90991 159.90991,-159.90991c88.31581,0 159.90991,71.59411 159.90991,159.90991c0,88.31581 -71.5941,159.90991 -159.90991,159.90991c-88.31581,0 -159.90991,-71.59411 -159.90991,-159.90991z" fill="url(#color-22)" stroke-width="0"/><path d="M-562.95796,-371.24623c0,-88.31581 71.5941,-159.90991 159.90991,-159.90991c88.31581,0 159.90991,71.59411 159.90991,159.90991c0,88.3158 -71.5941,159.90991 -159.90991,159.90991c-88.31581,0 -159.90991,-71.59411 -159.90991,-159.90991z" fill="url(#color-23)" stroke-width="0"/><path d="M-434.32433,-432.55253c0,-163.36351 132.43229,-295.7958 295.7958,-295.7958c163.3635,0 295.79579,132.43229 295.79579,295.7958c0,163.36351 -132.43229,295.7958 -295.79579,295.7958c-163.36351,0 -295.7958,-132.43229 -295.7958,-295.7958z" fill="url(#color-24)" stroke-width="0"/><path d="M-286.68168,-68.69368c0,-163.36351 132.43229,-295.7958 295.7958,-295.7958c163.3635,0 295.79579,132.43229 295.79579,295.7958c0,163.36351 -132.43229,295.7958 -295.79579,295.7958c-163.36351,0 -295.7958,-132.43229 -295.7958,-295.79579z" fill="url(#color-25)" stroke-width="0"/><path d="M-667.56757,-159.78977c0,-109.46184 88.73636,-198.1982 198.1982,-198.1982c109.46184,0 198.1982,88.73636 198.1982,198.1982c0,109.46184 -88.73635,198.19819 -198.19819,198.19819c-109.46184,0 -198.1982,-88.73635 -198.1982,-198.19819z" fill="url(#color-26)" stroke-width="0"/><path d="M-550.45045,-102.73271c0,-110.2911 89.40859,-199.6997 199.69969,-199.6997c110.2911,0 199.6997,89.4086 199.6997,199.6997c0,110.2911 -89.4086,199.6997 -199.6997,199.6997c-110.2911,0 -199.69969,-89.4086 -199.69969,-199.6997z" fill="url(#color-27)" stroke-width="0"/><path d="M-351.63664,-8.12308c0,-170.41219 138.14638,-308.55856 308.55856,-308.55856c170.41218,0 308.55855,138.14637 308.55855,308.55856c0,170.41219 -138.14637,308.55856 -308.55855,308.55856c-170.41219,0 -308.55856,-138.14638 -308.55856,-308.55856z" fill="url(#color-28)" stroke-width="0"/><path d="M-520.42042,-260.63059c0,-72.97456 59.15757,-132.13213 132.13213,-132.13213c72.97456,0 132.13214,59.15757 132.13214,132.13213c0,72.97456 -59.15758,132.13214 -132.13213,132.13214c-72.97456,0 -132.13213,-59.15758 -132.13213,-132.13214z" fill="url(#color-29)" stroke-width="0"/><path d="M-482.38739,-228.60357c0,-72.97456 59.15757,-132.13213 132.13213,-132.13213c72.97456,0 132.13214,59.15757 132.13214,132.13213c0,72.97456 -59.15758,132.13214 -132.13213,132.13214c-72.97456,0 -132.13213,-59.15757 -132.13213,-132.13214z" fill="url(#color-30)" stroke-width="0"/><path d="M-543.03302,-234.23418c0,-50.88317 41.24895,-92.13212 92.13212,-92.13212c50.88317,0 92.13213,41.24896 92.13213,92.13212c0,50.88317 -41.24896,92.13213 -92.13213,92.13213c-50.88317,0 -92.13212,-41.24896 -92.13212,-92.13213z" fill="url(#color-31)" stroke-width="0"/><path d="M202.08709,-480.43541c0,-88.31581 71.59411,-159.90991 159.90991,-159.90991c88.31581,0 159.90991,71.59411 159.90991,159.90991c0,88.3158 -71.59411,159.90991 -159.90991,159.90991c-88.31581,0 -159.90991,-71.59411 -159.90991,-159.90991z" fill="url(#color-32)" stroke-width="0"/><path d="M208.58859,-436.39637c0,-88.31581 71.5941,-159.90991 159.90991,-159.90991c88.31581,0 159.90991,71.5941 159.90991,159.90991c0,88.31581 -71.5941,159.90991 -159.90991,159.90991c-88.31581,0 -159.90991,-71.59411 -159.90991,-159.90991z" fill="url(#color-33)" stroke-width="0"/><path d="M337.22222,-497.70268c0,-163.36351 132.43229,-295.7958 295.7958,-295.7958c163.3635,0 295.7958,132.43229 295.7958,295.7958c0,163.3635 -132.43229,295.7958 -295.79579,295.7958c-163.36351,0 -295.79579,-132.43229 -295.79579,-295.79579z" fill="url(#color-34)" stroke-width="0"/><path d="M306.18619,-420.63061c0,-163.36351 132.43229,-295.7958 295.7958,-295.7958c163.3635,0 295.79579,132.43229 295.79579,295.7958c0,163.3635 -132.43229,295.7958 -295.79579,295.7958c-163.36351,0 -295.7958,-132.43229 -295.7958,-295.79579z" fill="url(#color-35)" stroke-width="0"/><path d="M103.97898,-224.93991c0,-109.46184 88.73636,-198.1982 198.1982,-198.1982c109.46184,0 198.19819,88.73636 198.19819,198.1982c0,109.46184 -88.73635,198.1982 -198.19819,198.1982c-109.46184,0 -198.1982,-88.73635 -198.1982,-198.19819z" fill="url(#color-36)" stroke-width="0"/><path d="M221.0961,-167.88286c0,-110.2911 89.4086,-199.6997 199.6997,-199.6997c110.2911,0 199.6997,89.4086 199.6997,199.6997c0,110.2911 -89.4086,199.6997 -199.6997,199.6997c-110.2911,0 -199.6997,-89.4086 -199.6997,-199.6997z" fill="url(#color-37)" stroke-width="0"/><path d="M418.7988,-73.27323c0,-170.41218 138.14638,-308.55856 308.55856,-308.55856c170.41219,0 308.55855,138.14637 308.55855,308.55856c0,170.41218 -138.14637,308.55856 -308.55855,308.55856c-170.41218,0 -308.55856,-138.14637 -308.55856,-308.55856z" fill="url(#color-38)" stroke-width="0"/><path d="M251.12613,-325.78074c0,-72.97456 59.15757,-132.13213 132.13213,-132.13213c72.97456,0 132.13214,59.15757 132.13214,132.13213c0,72.97456 -59.15758,132.13214 -132.13214,132.13214c-72.97456,0 -132.13213,-59.15758 -132.13213,-132.13213z" fill="url(#color-39)" stroke-width="0"/><path d="M289.15916,-293.75371c0,-72.97456 59.15757,-132.13213 132.13213,-132.13213c72.97456,0 132.13213,59.15757 132.13213,132.13213c0,72.97456 -59.15757,132.13214 -132.13213,132.13214c-72.97456,0 -132.13213,-59.15758 -132.13213,-132.13213z" fill="url(#color-40)" stroke-width="0"/><path d="M228.51353,-299.38433c0,-50.88317 41.24895,-92.13213 92.13212,-92.13213c50.88317,0 92.13213,41.24896 92.13213,92.13213c0,50.88317 -41.24896,92.13213 -92.13213,92.13213c-50.88317,0 -92.13212,-41.24896 -92.13212,-92.13213z" fill="url(#color-41)" stroke-width="0"/></g></g></svg>